<svg id="Ebene_1" data-name="Ebene 1" xmlns="http://www.w3.org/2000/svg" viewBox="0 0 731.29 102.03"><defs><style>.cls-1{fill:#fff;}</style></defs><title>FABMOBIL_White</title><g id="Ebene_1-2" data-name="Ebene 1"><path class="cls-1" d="M691.34,32.31a8.89,8.89,0,0,1-8.88,8.88h-8.8a8.87,8.87,0,0,0-8.88,8.86v53.21a4.43,4.43,0,0,1-4.42,4.44h0a8.87,8.87,0,1,0,8.87,8.87h0V107.7a4.44,4.44,0,0,1,4.44-4.44h0a8.85,8.85,0,0,0,8.86-8.84v0a4.44,4.44,0,0,1,4.43-4.4,4.43,4.43,0,0,0,4.43-4.43V41.2h0a4.43,4.43,0,0,1,4.42-4.44h0a4.47,4.47,0,0,0,.08-8.93,4.6,4.6,0,0,0-4.56,4.51" transform="translate(-35.24 -27.83)"/><path class="cls-1" d="M726.84,50.06v53.19a4.43,4.43,0,0,1-4.42,4.44h0a4.43,4.43,0,1,0,4.44,4.43,8.85,8.85,0,0,1,8.83-8.87h17.8a4.4,4.4,0,0,1,4.4,4.42v0a4.42,4.42,0,0,0,4.42,4.42h0a4.44,4.44,0,0,1,0,8.87H704.65a4.44,4.44,0,0,0-4.44,4.44h0a4.42,4.42,0,0,1-8.84,0v-8.87a4.75,4.75,0,0,1,4.79-4.43,8.56,8.56,0,0,0,8.52-8.6c0-.09,0-.18,0-.27V54.49a4.43,4.43,0,0,0-4.43-4.43,4.44,4.44,0,1,1-.42-8.87H718A8.87,8.87,0,0,1,726.89,50v0" transform="translate(-35.24 -27.83)"/><path class="cls-1" d="M79.65,103.25a4.44,4.44,0,0,0-4.45,4.43h0v4.23a4.62,4.62,0,0,1-4.45,4.63h0A4.44,4.44,0,0,0,66.32,121h0a4.44,4.44,0,1,1-8.88,0A4.44,4.44,0,0,0,53,116.55h0a8.9,8.9,0,0,1-8.88-8.88V59h0a4.44,4.44,0,0,0-4.44-4.44h0a4.44,4.44,0,1,1,0-8.88h0a4.43,4.43,0,0,1,4.45,4.41h0a8.87,8.87,0,0,0,17.74,0h0A8.89,8.89,0,0,0,53,41.26a4.44,4.44,0,0,1,0-8.88h0a4.44,4.44,0,0,1,4.44,4.44,4.44,4.44,0,0,0,4.44,4.44l66.55-.09a4.45,4.45,0,0,1,0,8.89A4.44,4.44,0,0,0,124,54.5a4.44,4.44,0,0,1-4.44,4.44H84.08a4.44,4.44,0,0,0-4.44,4.44h0v8.86a4.44,4.44,0,0,1-4.44,4.44h0a4.44,4.44,0,1,0,4.44,4.44,4.44,4.44,0,0,1,4.44-4.44h26.58a8.89,8.89,0,0,1,0,17.77H88.5a4.44,4.44,0,0,0-4.44,4.44h0a4.44,4.44,0,0,1-4.44,4.44h0" transform="translate(-35.24 -27.83)"/><path class="cls-1" d="M407.69,76.67V90a4.44,4.44,0,0,0,4.44,4.44h0a4.44,4.44,0,0,1,4.44,4.44h0v4.35a4.44,4.44,0,0,1-4.43,4.45h0a8.89,8.89,0,0,0-8.88,8.88h0a8.89,8.89,0,0,0,8.88,8.88h-.06a8.89,8.89,0,0,0,8.88-8.88h0v-8.87a4.44,4.44,0,0,1,4.44-4.44h3.48a4.44,4.44,0,0,0,4.44-4.44h0V50.08h0a8.87,8.87,0,0,0-8.86-8.88H398.83A8.89,8.89,0,0,0,390,50.08l.05,8.64a4.43,4.43,0,0,1-4.42,4.44h0a8.89,8.89,0,0,0-8.88,8.89,4.44,4.44,0,0,0,4.44,4.44h0a4.44,4.44,0,0,1,0,8.88,4.44,4.44,0,0,0-4.44,4.44h0a4.44,4.44,0,0,1-8.88,0h0a4.44,4.44,0,0,0-4.44-4.44h0a4.44,4.44,0,0,1,0-8.88h0a4.44,4.44,0,0,0,4.44-4.44h0A8.89,8.89,0,0,0,359,63.16a4.44,4.44,0,0,1-4.44-4.44h0V50.08a8.87,8.87,0,0,0-8.86-8.88H319a8.89,8.89,0,0,0-8.88,8.88h0v66.47a8.9,8.9,0,0,0,8.88,8.88h4.4a4.44,4.44,0,0,0,4.44-4.44h0a4.44,4.44,0,0,1,4.44-4.44h0a4.44,4.44,0,0,0,4.44-4.44h0V76.67h0V72.25a4.44,4.44,0,0,0-4.44-4.44h0a4.44,4.44,0,1,1,0-8.88h0a4.44,4.44,0,0,1,4.44,4.44h0a4.44,4.44,0,0,0,4.44,4.44h0a4.44,4.44,0,0,1,4.44,4.44h0V85.59A4.38,4.38,0,0,0,350,90h.1a4.4,4.4,0,0,1,4.43,4.35v9a4.43,4.43,0,0,0,4.43,4.43,4.44,4.44,0,0,1,4.44,4.44h0a8.86,8.86,0,0,0,17.72,0h0a4.44,4.44,0,0,1,4.45-4.43h0A4.44,4.44,0,0,0,390,103.3h0V94.39A4.4,4.4,0,0,1,394.31,90h.05a4.44,4.44,0,0,0,4.45-4.43h0V76.67a4.44,4.44,0,0,1,8.88,0" transform="translate(-35.24 -27.83)"/><path class="cls-1" d="M208.17,116.56h0a4.44,4.44,0,0,1-4.44-4.44h0v-8.86a4.43,4.43,0,0,0-4.42-4.44h0a4.44,4.44,0,0,1-4.44-4.44h0V80.93a4.44,4.44,0,0,0-4.44-4.44h0A4.44,4.44,0,0,1,186,72.05V58.89h0a4.43,4.43,0,0,0-4.43-4.43h0c-2.45,0-4.45-1.27-4.45-3.72v-.6a8.9,8.9,0,0,0-8.88-8.88,4.44,4.44,0,0,1-4.44-4.44h0a4.45,4.45,0,0,0-8.89,0,4.37,4.37,0,0,1-4.36,4.38h-.06a8.87,8.87,0,0,0-8.88,8.86v-.63a4.44,4.44,0,0,1-4.44,4.44h0a4.44,4.44,0,0,0-4.44,4.44h0V72a4.44,4.44,0,0,1-4.44,4.44h0A4.44,4.44,0,0,0,124,80.86V94.32a4.44,4.44,0,0,1-4.44,4.44h0a4.44,4.44,0,0,0-4.44,4.44h0v8.85a4.44,4.44,0,0,1-4.44,4.44h0a4.44,4.44,0,0,0,0,8.88l22.14.06a8.9,8.9,0,0,0,8.88-8.88,4.44,4.44,0,0,1,4.44-4.44h0a4.44,4.44,0,0,0,4.44-4.44h0v-4.33a4.44,4.44,0,0,0-4.44-4.44h0a8.88,8.88,0,0,1-8.85-8.9h0A8.89,8.89,0,0,1,155,90a4.44,4.44,0,0,0,4.44,4.44h4.38a4.42,4.42,0,0,1,4.45,4.39h0v8.85a4.43,4.43,0,0,0,4.43,4.43,4.42,4.42,0,0,1,4.43,4.41v0a8.89,8.89,0,0,0,8.88,8.88h22.12a4.44,4.44,0,0,0,0-8.88h0Zm-31-39.89a8.85,8.85,0,1,1-17.7.08V63.33A4.44,4.44,0,0,0,155,58.89h-4.46a4.42,4.42,0,1,1,0-8.84h0A4.44,4.44,0,0,1,155,54.49a4.42,4.42,0,0,0,4.44,4.4h0a4.35,4.35,0,0,0,4.45-4.25v-.08a4.44,4.44,0,0,1,8.88,0h0A4.44,4.44,0,0,1,168.34,59h0a4.44,4.44,0,0,0,0,8.88h0a8.75,8.75,0,0,1,8.84,8.66v.13Z" transform="translate(-35.24 -27.83)"/><path class="cls-1" d="M296.88,85.53h-4.41a4.44,4.44,0,0,1,0-8.88h-.11a8.9,8.9,0,0,0,8.88-8.88l.09-8.83a4.44,4.44,0,0,0-4.44-4.44h0a4.44,4.44,0,0,1-4.44-4.44h0a8.89,8.89,0,0,0-8.88-8.88H226a4.44,4.44,0,0,0-4.46,4.42h0A4.44,4.44,0,0,1,217.1,50h0a8.89,8.89,0,0,0-8.92,8.86v44.47a4.44,4.44,0,0,0,4.44,4.44H217a4.44,4.44,0,0,0,4.44-4.44h0a4.44,4.44,0,1,1,4.46,4.42h0a4.44,4.44,0,0,0-4.44,4.44h0V121h0a4.44,4.44,0,0,0,4.44,4.44h62a4.44,4.44,0,0,0,4.44-4.44h0a4.44,4.44,0,0,1,4.44-4.44h.07a8.87,8.87,0,0,0,8.88-8.86V94.41A8.88,8.88,0,0,0,296.88,85.53ZM279.15,98.85v-.06a8.89,8.89,0,0,1-8.88,8.83H243.64a4.43,4.43,0,0,1-4.44-4.42h0a4.43,4.43,0,0,0-4.43-4.43,4.44,4.44,0,0,1,0-8.87h35.48a8.87,8.87,0,0,1,8.88,8.82v.06Zm0-26.56h-26.6a8.89,8.89,0,0,1-8.88-8.88h0V59a4.44,4.44,0,0,1,4.44-4.44h22.15A4.44,4.44,0,0,1,274.75,59v-.19a4.44,4.44,0,0,0,4.44,4.44h0a4.63,4.63,0,0,1,4.44,4.65,4.43,4.43,0,0,1-4.44,4.42h0Z" transform="translate(-35.24 -27.83)"/><path class="cls-1" d="M540.68,50.05h-4.42a4.44,4.44,0,0,1-4.45-4.43h0A8.88,8.88,0,0,0,523,36.75H469.78a4.44,4.44,0,0,0-4.46,4.42h0a4.44,4.44,0,0,1-4.44,4.44h-4.43a8.89,8.89,0,0,0-8.88,8.89V67.79a4.43,4.43,0,0,1-4.43,4.43h0a4.44,4.44,0,0,0-4.46,4.42h0v26.57a4.44,4.44,0,0,0,4.43,4.45h0a4.44,4.44,0,0,1,4.44,4.44h0a8.9,8.9,0,0,0,8.88,8.88h8.87a4.44,4.44,0,0,1,4.44,4.44h0a4.44,4.44,0,0,0,4.46,4.42h44.32a4.43,4.43,0,0,0,4.45-4.41h0A4.44,4.44,0,0,1,527.4,121h0a8.89,8.89,0,0,0,8.88-8.88h0a4.43,4.43,0,0,1,4.41-4.45h0a8.89,8.89,0,0,0,8.88-8.88h0V58.94a8.89,8.89,0,0,0-8.87-8.89Zm-13.3,35.47V90A4.42,4.42,0,0,1,523,94.36h0a4.43,4.43,0,0,0-4.45,4.41h0c0,4.91-3.48,8.88-7.78,8.88H487.49a8.87,8.87,0,0,1-8.89-8.85V94.38A4.44,4.44,0,0,1,483,89.94h0a4.43,4.43,0,1,0,0-8.86h0a4.46,4.46,0,0,0-4.46,4.45,8.84,8.84,0,0,1-8.83,8.85h0a4.45,4.45,0,0,1-4.41-4.48V76.65a4.44,4.44,0,0,1,4.45-4.43h0a4.44,4.44,0,0,0,4.45-4.43h0c0-4.91,3.5-8.88,7.8-8.88h23.23a8.9,8.9,0,0,1,8.88,8.88v4.43a4.4,4.4,0,0,1-4.37,4.43h0a8.87,8.87,0,0,0-.6,17.73q.3,0,.6,0h-.06a8.88,8.88,0,0,0,8.9-8.87V76.65a4.44,4.44,0,1,1,8.87-.42,2.94,2.94,0,0,1,0,.42v8.84Z" transform="translate(-35.24 -27.83)"/><path class="cls-1" d="M652.19,98.83a4.44,4.44,0,0,1-4.44-4.44h0a8.89,8.89,0,0,0-8.88-8.88h0a4.43,4.43,0,1,1-.42-8.85h.42a8.89,8.89,0,0,0,8.88-8.88h0V59a4.44,4.44,0,0,0-4.44-4.44h0a4.44,4.44,0,0,1-4.44-4.44h0A8.89,8.89,0,0,0,630,41.19H572.39A4.42,4.42,0,0,0,568,45.63a4.43,4.43,0,0,1-4.43,4.43h0a8.86,8.86,0,0,0-8.86,8.86v44.33a4.42,4.42,0,0,0,4.41,4.43h0a4.44,4.44,0,0,1,4.44,4.44h0a4.44,4.44,0,0,0,4.44,4.44h0A4.45,4.45,0,0,1,572.4,121h0a4.19,4.19,0,0,0,3.93,4.43h58.12a8.87,8.87,0,0,0,8.88-8.86v0a8.85,8.85,0,0,1,8.84-8.86h0a4.43,4.43,0,0,0,0-8.86h0Zm-66.5-39.91a4.43,4.43,0,0,1,4.43-4.43h31a4.44,4.44,0,0,1,4.47,4.41V59h0a4.43,4.43,0,0,1-4.44,4.4,4.44,4.44,0,0,0-4.44,4.44h0a8.85,8.85,0,0,1-8.83,8.87h0a4.45,4.45,0,0,1,0-8.89,4.43,4.43,0,1,0-4.44-4.42,8.86,8.86,0,0,1-8.86,8.86h0a8.86,8.86,0,0,1-8.87-8.85h0Zm35,48.85H589.23a8.78,8.78,0,0,1-8.69-8.89v0A8.87,8.87,0,0,0,571.68,90h-.09a4.35,4.35,0,0,1-4.34-4.36v-.07a4.45,4.45,0,0,1,4.43-4.44h0a4.44,4.44,0,0,1,4.43,4.44A4.44,4.44,0,0,0,580.55,90H620.7a8.88,8.88,0,0,1,0,17.76Z" transform="translate(-35.24 -27.83)"/></g></svg>